<?xml version="1.0" encoding="utf-8"?>
<!-- Generator: Adobe Illustrator 26.0.1, SVG Export Plug-In . SVG Version: 6.00 Build 0)  -->
<svg version="1.1" xmlns="http://www.w3.org/2000/svg" xmlns:xlink="http://www.w3.org/1999/xlink" x="0px" y="0px"
	 viewBox="0 0 888 886.9" style="enable-background:new 0 0 888 886.9;" xml:space="preserve">
<style type="text/css">
	.st0{fill:#1E3E42;}
	.st1{fill:#FFFFFF;}
</style>
<g id="Warstwa_1">
</g>
<g id="Warstwa_2">
</g>
<g id="Warstwa_3">
</g>
<g id="Warstwa_4">
	<g>
		<path class="st0" d="M798.2,221.2c-51.3,77-102.7,154-154,231c-7.7,11.5-15.3,23-23,34.5C567,567.9,512.8,649.2,458.6,730.4
			c-9.1,13.6-31.6,8.9-31.6-8.5c0-23.1,0-46.3,0-69.4c0-143.8,0-287.6,0-431.4c-51.3,77-102.7,154-154,231c-7.3,10.9-22,10.9-29.2,0
			c-7.7-11.5-15.3-23-23-34.5c-43.7-65.5-87.3-131-131-196.4c0,4.5,0,9,0,13.5c0,158.9,0,317.8,0,476.7
			c81.1,107,209.5,176.2,354.1,176.2s273.1-69.1,354.1-176.2c0-19.6,0-39.2,0-58.8C798.2,508.7,798.2,364.9,798.2,221.2z"/>
		<path class="st0" d="M258.5,413.1c2.8-4.2,5.6-8.4,8.4-12.6C321,319.4,375,238.3,429.1,157.2c1.5-2.7,3.6-4.7,6.2-6.1
			c5.4-3.3,12.1-3.3,17.6,0c0.3,0.2,0.6,0.4,0.9,0.6c0.1,0,0.1,0.1,0.2,0.1c2,1.3,3.7,3.1,4.9,5.3c7.6,11.4,15.2,22.8,22.8,34.1
			c49.3,73.9,98.6,147.9,147.9,221.8c2.8-4.2,5.6-8.4,8.4-12.6c51.6-77.3,103.1-154.7,154.7-232C711.3,65.5,585.4-0.6,444-0.6
			c-141.4,0-267.3,66.1-348.6,169c5.1,7.6,10.1,15.2,15.2,22.8C159.9,265.2,209.2,339.2,258.5,413.1z"/>
		<path class="st0" d="M832,659.5c35.7-63.9,56-137.6,56-216s-20.3-152.1-56-216c0,2.4,0,4.8,0,7.2C832,376.3,832,517.9,832,659.5z"
			/>
		<path class="st0" d="M56,227.4C20.3,291.4,0,365,0,443.5s20.3,152.1,56,216c0-2.3,0-4.7,0-7C56,510.8,56,369.1,56,227.4z"/>
		<path class="st0" d="M461,221.2c0,4.5,0,9,0,13.5c0,143.8,0,287.6,0,431.4c49.4-74.1,98.9-148.3,148.3-222.4
			c-5.8-8.7-11.5-17.3-17.3-26C548.3,352.1,504.6,286.6,461,221.2z"/>
	</g>
</g>
<g id="Warstwa_5">
</g>
<g id="Warstwa_6">
</g>
<g id="Warstwa_7">
</g>
<g id="Warstwa_8">
</g>
</svg>
